<?xml version="1.0" encoding="UTF-8" standalone="no"?>
<!-- Generator: Adobe Illustrator 19.0.0, SVG Export Plug-In . SVG Version: 6.00 Build 0)  -->

<svg
   version="1.1"
   id="Capa_1"
   x="0px"
   y="0px"
   viewBox="0 0 490.4 490.4"
   style="enable-background:new 0 0 490.4 490.4;"
   xml:space="preserve"
   sodipodi:docname="right-arrow-white.svg"
   inkscape:version="1.2.1 (9c6d41e410, 2022-07-14)"
   xmlns:inkscape="http://www.inkscape.org/namespaces/inkscape"
   xmlns:sodipodi="http://sodipodi.sourceforge.net/DTD/sodipodi-0.dtd"
   xmlns="http://www.w3.org/2000/svg"
   xmlns:svg="http://www.w3.org/2000/svg"><defs
   id="defs169" /><sodipodi:namedview
   id="namedview167"
   pagecolor="#ffffff"
   bordercolor="#000000"
   borderopacity="0.25"
   inkscape:showpageshadow="2"
   inkscape:pageopacity="0.0"
   inkscape:pagecheckerboard="0"
   inkscape:deskcolor="#d1d1d1"
   showgrid="false"
   inkscape:zoom="1.6782219"
   inkscape:cx="244.90207"
   inkscape:cy="245.2"
   inkscape:window-width="1894"
   inkscape:window-height="1032"
   inkscape:window-x="10"
   inkscape:window-y="32"
   inkscape:window-maximized="1"
   inkscape:current-layer="g132" />
<g
   id="g134">
	<g
   id="g132">
		<path
   d="M245.2,490.4c135.2,0,245.2-110,245.2-245.2S380.4,0,245.2,0S0,110,0,245.2S110,490.4,245.2,490.4z M245.2,24.5    c121.7,0,220.7,99,220.7,220.7s-99,220.7-220.7,220.7s-220.7-99-220.7-220.7S123.5,24.5,245.2,24.5z"
   id="path128"
   style="fill:#ffffff" />
		<path
   d="M138.7,257.5h183.4l-48,48c-4.8,4.8-4.8,12.5,0,17.3c2.4,2.4,5.5,3.6,8.7,3.6s6.3-1.2,8.7-3.6l68.9-68.9    c4.8-4.8,4.8-12.5,0-17.3l-68.9-68.9c-4.8-4.8-12.5-4.8-17.3,0s-4.8,12.5,0,17.3l48,48H138.7c-6.8,0-12.3,5.5-12.3,12.3    C126.4,252.1,131.9,257.5,138.7,257.5z"
   id="path130"
   style="fill:#ffffff" />
	</g>
</g>
<g
   id="g136">
</g>
<g
   id="g138">
</g>
<g
   id="g140">
</g>
<g
   id="g142">
</g>
<g
   id="g144">
</g>
<g
   id="g146">
</g>
<g
   id="g148">
</g>
<g
   id="g150">
</g>
<g
   id="g152">
</g>
<g
   id="g154">
</g>
<g
   id="g156">
</g>
<g
   id="g158">
</g>
<g
   id="g160">
</g>
<g
   id="g162">
</g>
<g
   id="g164">
</g>
</svg>
